<svg
  xmlns="http://www.w3.org/2000/svg"
  viewBox="0 0 24 24"
  width="32"
  height="32"
  fill="none"
  stroke="#2f81f7"
  stroke-width="1.5"
  stroke-linecap="round"
  stroke-linejoin="round"
>
  <path d="M2.5 13C2.5 9.4 6 7 10.5 7C15 7 18 9.4 18 12.5" />
  <path d="M2.5 13C2.5 16 5.5 17.5 9.5 17.5C12.5 17.5 15.2 16.6 17 15" />
  <path d="M18 12.5C19.6 11.8 20.6 10.4 21 8.5" />
  <path d="M18 12.5C19.8 13 21 14 21.5 15.5" />
  <path d="M8 16C9 17 10.5 17 11.5 16.2" />
  <circle cx="6" cy="12.5" r="0.8" fill="#2f81f7" stroke="none" />
  <path d="M8.5 7C8.3 5.4 8.8 4.2 10 3.5" />
  <path d="M8.5 7C7.4 6.1 7 4.9 7.2 3.6" />
</svg>
